<svg width="26" height="26" viewBox="0 0 26 26" fill="none" xmlns="http://www.w3.org/2000/svg">
<path d="M26 3.07757C25.0454 3.60268 24.0148 3.95255 22.9385 4.10878C24.0402 3.29631 24.8829 2.00885 25.2841 0.477538C24.2534 1.22749 23.111 1.7775 21.8976 2.07126C20.9226 0.796103 19.5365 0.00244141 18.0033 0.00244141C15.0587 0.00244141 12.6725 2.94004 12.6725 6.56498C12.6725 7.07748 12.7182 7.57749 12.8095 8.05879C8.37716 7.78373 4.44758 5.1712 1.81752 1.19618C1.36057 2.16508 1.09659 3.29631 1.09659 4.49626C1.09659 6.77132 2.03584 8.78383 3.46763 9.95887C2.59419 9.92747 1.77178 9.6275 1.05085 9.14001V9.22122C1.05085 12.4025 2.88872 15.0587 5.33085 15.6587C4.88398 15.8088 4.41192 15.89 3.92442 15.89C3.57927 15.89 3.24923 15.8462 2.91919 15.7712C3.59958 18.3774 5.56957 20.2775 7.89982 20.3337C6.0721 22.0962 3.77719 23.1463 1.2742 23.1463C0.842765 23.1463 0.42124 23.115 -0.00012207 23.0524C2.36588 24.9212 5.16843 26.0024 8.17915 26.0024C17.9881 26.0024 23.3547 15.9961 23.3547 7.32103C23.3547 7.03358 23.3496 6.75232 23.3394 6.47106C24.3803 5.55247 25.2841 4.39624 26 3.07757Z" fill="white"/>
</svg>
